#!OML:ASF X:\für Bonn\!DataBase\2005_08_10_Bjorn_Final\c3d\bjorn.ASF
:FULLY-SPECIFIED
:DEGREES
95
root 0.770561 18.5682 1.0897 -183.675 4.04264 181.198
lowerback -27.359 -0.231093 -0.636342
upperback 6.00861 -0.594356 2.68722
thorax 22.1943 -0.561261 3.213
lowerneck 29.5768 -6.02542 4.33759
upperneck 21.9683 -0.102101 2.63267
head 2.52513 2.85288 0.266801
rclavicle -2.73329e-015 1.74931e-014
rhumerus -1375 -65.0463 1411.9
rradius 24.1106
rwrist 28.7025
rhand -3.02393 -6.71305
rfingers 7.12502
rthumb 22.691 -35.399
lclavicle -2.73329e-015 1.74931e-014
lhumerus -1564.12 108.55 -1597.35
lradius 32.546
lwrist -40.0266
lhand -37.0641 3.08883
lfingers 7.12502
lthumb -10.1364 32.8247
rfemur 0.619651 -8.15387 13.9063
rtibia 32.8605
rfoot -25.5938 13.4204
rtoes -16.0601
lfemur 4.28357 7.41115 -12.5288
ltibia 31.737
lfoot -22.4035 -3.51073
ltoes -11.7433
96
root 0.76632 18.5629 1.0721 -183.663 4.03014 181.22
lowerback -27.4909 -0.255242 -0.688381
upperback 6.06017 -0.609083 2.67833
thorax 22.34 -0.576479 3.22838
lowerneck 30.0554 -6.05868 4.45702
upperneck 21.6984 -0.0513279 2.62071
head 2.39082 2.88169 0.236498
rclavicle 2.73329e-016 4.77083e-015
rhumerus -1379.46 -66.6391 1415.05
rradius 24.6854
rwrist 28.7537
rhand -2.67469 -6.84099
rfingers 7.12502
rthumb 23.0261 -35.4855
lclavicle 2.73329e-016 4.77083e-015
lhumerus -1572.5 107.458 -1604.4
lradius 32.8012
lwrist -40.1494
lhand -38.499 3.63269
lfingers 7.12502
lthumb -11.5205 33.2961
rfemur 0.656437 -8.00991 13.959
rtibia 32.8837
rfoot -25.7175 13.2203
rtoes -16.3301
lfemur 4.20966 7.51782 -12.4244
ltibia 31.9627
lfoot -22.3425 -3.91957
ltoes -11.4218
97
root 0.761531 18.558 1.05645 -183.674 3.99456 181.267
lowerback -27.589 -0.273608 -0.707274
upperback 6.13228 -0.623968 2.64775
thorax 22.4935 -0.585691 3.19995
lowerneck 30.5026 -6.0914 4.60863
upperneck 21.3807 -0.0127591 2.63302
head 2.24474 2.89819 0.208682
rclavicle 6.78353e-015 -7.95139e-016
rhumerus -1385.6 -67.8852 1419.82
rradius 25.2099
rwrist 28.178
rhand -2.62416 -7.24971
rfingers 7.12502
rthumb 23.0746 -35.8882
lclavicle 6.78353e-015 -7.95139e-016
lhumerus -1582.06 106.922 -1612.59
lradius 32.9774
lwrist -39.9859
lhand -39.9594 4.25497
lfingers 7.12502
lthumb -12.9286 33.8345
rfemur 0.727387 -7.93502 14.0199
rtibia 32.8915
rfoot -25.774 13.1045
rtoes -16.3926
lfemur 4.15155 7.56959 -12.3016
ltibia 32.1913
lfoot -22.2843 -4.20429
ltoes -11.5005
98
root 0.757402 18.5529 1.04156 -183.686 3.96856 181.293
lowerback -27.7095 -0.302585 -0.755849
upperback 6.21616 -0.642387 2.61583
thorax 22.6768 -0.600904 3.18559
lowerneck 30.8674 -6.1234 4.79069
upperneck 21.1342 0.039481 2.57924
head 2.13053 2.92739 0.154623
rclavicle -9.21864e-015 1.19271e-014
rhumerus -1392.41 -68.8632 1425.13
rradius 25.5316
rwrist 28.0365
rhand -2.83499 -7.40961
rfingers 7.12502
rthumb 22.8723 -36.0732
lclavicle -9.21864e-015 1.19271e-014
lhumerus -1592.5 107.147 -1621.56
lradius 33.1399
lwrist -40.0353
lhand -41.423 5.42051
lfingers 7.12502
lthumb -14.3392 34.9053
rfemur 0.793328 -7.81437 14.0652
rtibia 32.8975
rfoot -25.8355 12.9517
rtoes -16.4864
lfemur 4.10429 7.71652 -12.1744
ltibia 32.4052
lfoot -22.2499 -4.53896
ltoes -11.713
99
root 0.752598 18.549 1.02854 -183.687 3.93143 181.323
lowerback -27.8049 -0.329988 -0.810366
upperback 6.28222 -0.656163 2.58648
thorax 22.8221 -0.614542 3.17872
lowerneck 31.2471 -6.13049 4.87811
upperneck 20.8694 0.0866243 2.63146
head 2.009 2.94448 0.150425
rclavicle -2.98177e-015 -5.56597e-015
rhumerus -1400.68 -69.2882 1431.78
rradius 25.663
rwrist 28.3829
rhand -3.41643 -7.56725
rfingers 7.12502
rthumb 22.3143 -36.2988
lclavicle -2.98177e-015 -5.56597e-015
lhumerus -1603.28 108.552 -1630.65
lradius 33.5105
lwrist -39.1054
lhand -42.7247 6.91996
lfingers 7.12502
lthumb -15.5932 36.3114
rfemur 0.853777 -7.6935 14.125
rtibia 32.8836
rfoot -25.8861 12.7783
rtoes -16.5654
lfemur 4.05246 7.81676 -12.062
ltibia 32.6133
lfoot -22.2139 -4.85597
ltoes -11.8123
100
root 0.74722 18.5467 1.01556 -183.701 3.88132 181.324
lowerback -27.9262 -0.332191 -0.849119
upperback 6.38539 -0.630805 2.49674
thorax 23.0282 -0.606425 3.11119
lowerneck 31.5369 -6.15454 5.07045
upperneck 20.5759 0.117525 2.67944
head 1.8873 2.95266 0.128513
rclavicle 4.79568e-015 1.98785e-015
rhumerus -1410.18 -68.8864 1439.49
rradius 25.6906
rwrist 28.6327
rhand -4.20206 -8.09123
rfingers 7.12502
rthumb 21.5599 -36.9112
lclavicle 4.79568e-015 1.98785e-015
lhumerus -1612.14 110.31 -1637.66
lradius 33.8531
lwrist -38.3638
lhand -43.7517 7.77844
lfingers 7.12502
lthumb -16.5821 37.09
rfemur 0.924616 -7.64315 14.1283
rtibia 32.8628
rfoot -25.921 12.6257
rtoes -16.7379
lfemur 4.00919 7.95857 -11.9712
ltibia 32.8079
lfoot -22.1616 -5.26122
ltoes -11.5695
101
root 0.742027 18.5449 1.0059 -183.716 3.80978 181.351
lowerback -27.992 -0.361533 -0.900789
upperback 6.45924 -0.644373 2.45134
thorax 23.1677 -0.618006 3.08372
lowerneck 31.7996 -6.15579 5.17324
upperneck 20.3521 0.159538 2.73192
head 1.79075 2.96601 0.122845
rclavicle 6.63444e-015 2.54444e-014
rhumerus -1419.72 -67.3521 1447.15
rradius 25.6132
rwrist 28.4044
rhand -4.73759 -8.40747
rfingers 7.12502
rthumb 21.0455 -37.2855
lclavicle 6.63444e-015 2.54444e-014
lhumerus -1619.72 112.627 -1643.11
lradius 34.2614
lwrist -37.3744
lhand -44.5125 8.11785
lfingers 7.12502
lthumb -17.3145 37.3666
rfemur 1.00257 -7.54594 14.1858
rtibia 32.8327
rfoot -25.9737 12.4199
rtoes -16.9571
lfemur 3.95927 8.05641 -11.8597
ltibia 32.9875
lfoot -22.0736 -5.61507
ltoes -11.2807
102
root 0.735769 18.5435 0.996562 -183.728 3.75043 181.372
lowerback -28.071 -0.340151 -0.889904
upperback 6.55445 -0.600261 2.34315
thorax 23.3373 -0.592593 2.97419
lowerneck 32.0003 -6.16762 5.32221
upperneck 20.1108 0.182171 2.85267
head 1.6944 2.9673 0.133199
rclavicle -2.34814e-015 2.78299e-015
rhumerus -1428.65 -64.8342 1453.94
rradius 25.4825
rwrist 27.9293
rhand -4.93076 -8.36043
rfingers 7.12502
rthumb 20.8599 -37.259
lclavicle -2.34814e-015 2.78299e-015
lhumerus -1625.67 115.131 -1646.77
lradius 34.8343
lwrist -36.3674
lhand -45.0439 8.60944
lfingers 7.12502
lthumb -17.8259 37.8124
rfemur 1.07683 -7.52869 14.2008
rtibia 32.7932
rfoot -26.0022 12.2965
rtoes -17.0725
lfemur 3.91745 8.22942 -11.7499
ltibia 33.1558
lfoot -22.0063 -5.96
ltoes -11.1901
103
root 0.729589 18.5428 0.989487 -183.75 3.72802 181.393
lowerback -28.1234 -0.327404 -0.897099
upperback 6.64646 -0.568163 2.27706
thorax 23.4908 -0.577879 2.91871
lowerneck 32.1796 -6.14918 5.40613
upperneck 19.8426 0.208742 2.91111
head 1.59143 2.95963 0.132738
rclavicle 3.5657e-015 1.19271e-014
rhumerus -1436.28 -60.8889 1459.27
rradius 25.2455
rwrist 27.0437
rhand -5.08159 -8.69005
rfingers 7.12502
rthumb 20.715 -37.6045
lclavicle 3.5657e-015 1.19271e-014
lhumerus -1630.63 117.862 -1649.19
lradius 35.4869
lwrist -35.2211
lhand -45.1078 8.99324
lfingers 7.12502
lthumb -17.8874 38.1906
rfemur 1.15209 -7.4951 14.2115
rtibia 32.747
rfoot -25.9871 12.2161
rtoes -17.1632
lfemur 3.88535 8.46309 -11.6267
ltibia 33.3161
lfoot -21.9359 -6.32153
ltoes -11.1131
104
root 0.722696 18.5431 0.984236 -183.752 3.67116 181.392
lowerback -28.2006 -0.306326 -0.914944
upperback 6.75294 -0.515114 2.18392
thorax 23.6774 -0.554403 2.84764
lowerneck 32.2224 -6.13579 5.51466
upperneck 19.6207 0.212852 3.00815
head 1.51604 2.94065 0.143224
rclavicle -8.97016e-015 -9.54166e-015
rhumerus -1442.4 -55.833 1462.79
rradius 25.0799
rwrist 25.4441
rhand -4.1443 -9.65992
rfingers 7.12502
rthumb 21.6154 -38.4735
lclavicle -8.97016e-015 -9.54166e-015
lhumerus -1634.53 120.679 -1650.29
lradius 36.1595
lwrist -34.3189
lhand -44.8978 9.56404
lfingers 7.12502
lthumb -17.6853 38.7798
rfemur 1.20092 -7.44693 14.2124
rtibia 32.7002
rfoot -25.9696 12.0979
rtoes -17.2099
lfemur 3.82346 8.64868 -11.5542
ltibia 33.4663
lfoot -21.8712 -6.59771
ltoes -11.2328
